<?xml version="1.0" encoding="UTF-8"?>
<svg xmlns="http://www.w3.org/2000/svg" width="1990" height="993">
<rect width="1990" height="993" style="fill:#071fb3"/>
<path style="fill:#000" d="M 0,0 0,950.03125 330.07594,621.76894 646.86022,460.4602 956.99869,320.1437 1107.6373,226.23108 1190.7101,149.99613 1271.5677,62.712638 1307.2846,0 z"/>
<path style="fill:#fff" d="M 1308.8781,1.1643909e-6 C 1307.9452,0.01496108 1306.2929,0.92694545 1305.2709,1.5687315 c -1.3044,0.8191936 -9.2517,8.8135235 -18.6005,17.4756565 -10.0978,9.356232 -23.0136,17.902164 -28.1047,22.872088 -4.9599,4.841779 -11.3772,19.709967 -11.6685,23.342708 -1.0477,13.065547 -2.9129,19.744336 -12.1703,30.276496 1.2014,-11.027945 4.1036,-26.168785 4.6422,-38.716265 0.4068,-9.479117 -3.1024,-7.387892 -9.6923,2.102099 -4.5527,6.556098 -8.1507,12.153609 -9.316,21.303358 -1.8173,14.267053 -2.2862,19.232514 -3.0426,30.339248 -0.5225,7.67206 -6.7686,13.64452 -9.0964,15.62455 0.1255,-1.20888 0.6401,-6.05246 1.1293,-10.76149 1.1509,-11.07987 0.8209,-18.887663 0.8782,-40.128121 0.03,-11.28003 -5.3472,-9.274846 -11.0411,1.380482 -3.7621,7.03997 -7.8684,15.102823 -9.0337,24.252569 -1.8173,14.26706 -0.7188,28.33968 -0.9724,39.46926 -0.1886,8.2767 -7.3053,13.63393 -10.2884,15.53043 0.014,-1.38424 0.1171,-9.18081 0.1882,-14.05582 0.1652,-11.34881 -0.064,-33.24827 -0.031,-48.662021 0.027,-12.420991 -5.1719,-9.126416 -11.1352,1.380483 -10.3042,18.155548 -12.6361,28.562528 -13.8014,37.712278 -1.8172,14.26705 -0.065,28.34115 -0.3765,39.46926 -0.2692,9.61218 -8.6508,14.7585 -11.6685,16.31479 0.099,-1.42339 0.5576,-8.20641 0.6274,-12.98909 0.1656,-11.3488 0.061,-48.18258 0.094,-63.59632 0.027,-12.420996 -5.4594,-9.58685 -10.9156,-0.0941 -10.403,18.09903 -15.9331,31.37822 -17.9731,46.68542 -2.584,19.38769 -2.5743,35.43181 -2.8859,46.55991 -0.2792,9.97003 -9.753,15.31959 -12.5781,16.6913 0.1236,-1.22921 0.7291,-7.74227 1.0664,-16.25205 1.1197,-28.23306 -0.7334,-41.72562 0.3138,-78.37377 0.3546,-12.41594 -5.0928,-8.60018 -13.0486,1.06674 -13.5789,16.49917 -19.4776,32.6332 -21.5178,47.9404 -2.5838,19.38769 -3.2349,49.40173 -3.7641,60.52161 -0.5664,11.90021 -9.8481,17.65149 -13.5818,19.51501 0.1019,-1.00617 0.7851,-7.75993 1.1293,-16.44029 1.1195,-28.23306 1.2426,-59.82877 2.2897,-96.47692 0.3547,-12.41594 -4.9045,-8.75959 -11.9194,-0.0627 -14.8938,18.46498 -26.7157,44.94208 -29.5163,68.61627 -2.2977,19.42369 -4.2072,48.77424 -4.7364,59.89412 -0.5862,12.3154 -11.19143,17.94789 -14.86787,19.54638 0.61209,-4.44576 3.30848,-24.27414 3.63856,-32.59822 1.11958,-28.23306 2.98773,-65.51903 5.17554,-101.02623 0.76389,-12.3975 -4.14997,-10.72288 -11.48029,-2.29035 -21.23093,24.4233 -33.67145,53.42884 -37.23251,81.7936 -2.43643,19.40678 -5.59065,58.72648 -6.24202,69.83988 -0.72266,12.33007 -12.22427,17.44558 -15.30704,18.60514 0.0963,-2.08825 1.02755,-22.60853 1.38014,-31.5001 1.11958,-28.23306 4.0542,-81.83384 6.24202,-117.34104 0.76388,-12.39749 -4.24408,-10.66012 -11.57439,-2.22759 -21.23094,24.4233 -35.11951,50.66459 -39.74187,78.87576 -2.97415,18.15179 -6.252,73.20278 -6.33611,84.33494 -0.11411,15.10115 -14.95622,21.25648 -17.94188,22.33872 0.20679,-3.69039 6.48991,-115.67524 9.06504,-164.71668 0.69853,-13.30297 -4.62048,-12.00924 -11.95079,-3.57671 -21.23094,24.4233 -39.06537,67.90358 -44.32144,100.93211 -2.89077,18.16526 -5.3539,65.86105 -5.42647,76.99329 -0.10839,16.62171 -16.45851,23.1173 -21.20402,24.66044 0.15364,-1.89052 1.93433,-24.2257 3.98359,-59.07839 2.54786,-43.33252 5.50954,-102.7053 6.93209,-129.79675 0.69853,-13.30296 -4.99094,-11.86174 -12.45266,-3.54533 -25.66688,28.6068 -43.50466,70.15968 -47.11309,97.22991 -2.43039,18.23259 -7.26242,96.45115 -7.30849,107.58353 -0.0585,14.15297 -20.0497,19.60685 -23.11742,20.36212 0.12745,-2.40155 9.79386,-184.87213 11.13526,-208.45289 0.75657,-13.29979 -3.65834,-12.45835 -12.92316,-3.29433 -25.36395,25.08799 -50.00095,65.84319 -56.39769,113.45058 -2.44949,18.23003 -8.32891,101.18871 -8.37497,112.32109 -0.0562,13.57632 -18.86119,20.36808 -23.14877,21.7426 0.0263,-1.45281 3.71459,-202.69062 4.07769,-226.43054 0.20373,-13.31975 -4.22295,-12.11323 -13.48777,-2.94921 -25.36395,25.08799 -54.28546,68.48104 -61.94963,125.21606 -2.46241,18.22828 -9.04364,114.8697 -8.84547,126.00042 0.21918,12.31052 -17.2456,19.83158 -21.9882,21.64848 0.0226,-1.57831 3.24406,-225.34112 3.60719,-249.08301 0.20373,-13.31975 -5.77752,-12.96464 -14.11511,-2.94921 -23.57155,28.31509 -58.58272,75.6479 -63.73754,149.59413 -1.27915,18.34938 -6.71039,120.39304 -5.83425,131.49097 0.85099,10.77908 -13.94269,19.57511 -18.7574,22.15048 -0.1277,-2.98244 -10.8776,-253.96683 -11.7626,-274.62194 -0.57024,-13.30909 -7.54255,-12.96527 -15.15021,-2.38447 -21.5437,29.96314 -51.86845,70.31327 -60.31856,150.59811 -1.92534,18.29285 -1.44287,156.90992 -1.44287,168.0424 0,12.35101 -16.99998,22.15165 -20.98446,24.28395 -0.14396,-3.05592 -13.95888,-297.10431 -13.95888,-317.79345 0,-9.50781 -7.66801,-13.09077 -15.27568,-2.50997 -21.5437,29.96314 -47.5247,71.6078 -58.75021,132.80871 -9.43612,51.44528 -6.63054,112.73196 -3.82676,161.95573 1.82666,32.06928 5.43033,61.84822 7.12028,78.06002 1.36184,13.0642 -14.91577,23.7099 -19.47885,26.41742 -0.32405,-2.92979 -36.27499,-327.76974 -38.51855,-351.92897 -0.76027,-8.18675 -9.50536,-12.61067 -16.71857,-1.75698 -18.87312,28.39838 -44.68613,85.98138 -52.006319,129.45163 -12.609927,74.88279 -4.752805,114.72828 -0.40777,166.72466 2.915094,34.88449 15.482279,105.46876 19.227909,126.00043 1.52501,8.35928 -8.08608,16.76689 -12.35856,20.89549 L 0,890.78785 0,993 l 1.2980535,0 c 0,0 37.1827775,-47.08028 76.9623715,-92.83114 37.646465,-43.2975 76.718145,-83.8134 80.581585,-87.19004 11.18814,-9.77841 23.54168,-7.81788 33.46848,-3.85907 46.95675,18.7264 151.9103,70.285 203.91625,80.31899 41.51792,8.01045 89.84002,11.46673 123.74243,7.87503 11.4245,-1.21034 12.69588,-8.94903 5.80288,-13.42833 -47.42674,-30.81948 -260.27119,-169.56994 -263.60746,-171.7446 3.67183,-3.72042 18.31479,-17.16953 31.90014,-10.07125 64.63072,33.76925 106.80932,65.32959 166.33869,90.51574 42.77441,18.09734 101.4371,31.39408 138.32804,32.1276 13.0272,0.25905 12.4529,-6.78591 4.6423,-12.20472 -22.53957,-15.63743 -213.02469,-177.14813 -228.16285,-186.67892 4.35862,-3.24789 19.56388,-13.41709 30.55137,-6.43179 10.96343,6.97002 82.79678,64.85566 98.52344,74.38919 75.1699,45.56816 151.94873,55.55058 172.64344,56.59979 13.01306,0.65976 15.54968,-4.18029 5.61467,-13.05183 -10.053,-8.97692 -97.20879,-83.28337 -153.13322,-134.00095 -27.7278,-25.1462 -47.00592,-39.42813 -50.28115,-41.82235 4.35257,-2.71076 19.47241,-11.10671 29.54762,-3.8277 10.53021,7.60773 68.12021,55.66979 97.11193,71.75372 64.07785,35.54887 131.31753,45.52271 158.59108,45.43043 10.63972,-0.036 14.05887,-5.17389 4.54819,-12.76946 -10.5743,-8.44503 -81.75394,-67.43559 -130.73725,-106.64229 -32.72019,-26.18955 -60.0054,-42.08052 -63.32978,-43.9872 4.16295,-2.40826 22.00657,-11.94905 31.90015,-4.26695 8.79166,6.82648 75.65852,53.55762 101.6915,66.79654 48.69792,24.76506 98.54448,33.87574 139.58272,34.54344 14.78933,0.24063 15.96752,-3.3868 6.24201,-11.16936 -13.6384,-10.91373 -101.33959,-76.99727 -128.44747,-97.16716 -26.02148,-19.36155 -47.77226,-30.94758 -51.34762,-32.81783 4.04366,-2.4143 18.77778,-10.24104 29.82992,-3.20021 11.47657,7.3112 76.69543,48.21309 93.72431,55.15656 44.19185,18.01906 78.06585,24.11067 109.21956,25.00556 15.57583,0.4474 19.44803,-4.08885 8.18677,-11.20074 -28.3405,-17.89805 -75.29029,-53.65384 -106.61611,-74.04407 -27.17532,-17.68862 -47.49863,-26.88256 -50.40661,-28.1744 3.1358,-2.00703 15.10871,-8.72708 26.97553,-2.79234 9.95479,4.97851 61.02315,32.61728 95.01035,44.80294 27.79228,9.96455 64.29846,16.36891 102.72661,16.47167 12.95581,0.0346 15.63541,-4.01212 4.1718,-10.79286 -23.34555,-13.80896 -79.35462,-46.98253 -117.46906,-67.73778 -15.44089,-8.40836 -31.54208,-14.60031 -35.19366,-15.96968 3.29125,-2.26686 16.84741,-10.36052 31.24143,-1.50598 9.4802,5.83217 63.49632,30.48736 81.08345,35.86118 29.72058,9.08122 76.92447,12.66089 93.28517,10.98111 11.1132,-1.14101 13.6919,-4.46838 2.0388,-10.91836 -19.9147,-11.02299 -88.82094,-48.43818 -101.12684,-54.08983 -19.55249,-8.97973 -32.61075,-14.00673 -36.41698,-15.4363 3.61931,-3.05048 13.9707,-10.23695 26.16,-4.42382 10.04635,4.79095 57.12397,26.78546 82.77722,31.56285 26.4424,4.92436 58.0068,6.60082 84.6593,1.47461 13.3094,-2.55989 17.1273,-6.56202 5.6461,-11.29486 -32.8829,-13.55499 -80.9291,-33.90631 -106.80435,-45.24218 -7.05826,-3.0922 -20.23373,-8.26922 -25.46993,-10.32225 3.29223,-2.56932 11.47425,-7.59574 21.8,-4.0787 10.53558,3.58857 48.76038,17.39888 67.72108,22.18185 22.2293,5.60744 64.384,3.60644 88.0157,-2.00798 10.8692,-2.58233 15.2487,-7.04387 3.4816,-11.01248 -33.7016,-11.36658 -58.2841,-19.78569 -84.8475,-29.39801 -6.5378,-2.36581 -27.4993,-8.10653 -37.8598,-10.91836 3.0876,-3.13056 10.7202,-9.18796 21.5804,-6.21218 10.7344,2.94135 27.6628,6.84436 46.768,11.01249 24.8928,5.43075 53.2654,5.28746 80.0484,-1.4746 12.0967,-3.05413 17.5896,-8.35087 5.6774,-11.85961 -38.7532,-10.17098 -62.9307,-20.38932 -99.2763,-28.48814 1.338,-1.96205 5.3306,-5.81824 15.4954,-4.61207 11.5236,1.36743 34.0394,8.29256 58.3424,7.96915 15.4375,-0.20543 35.2934,-4.44107 55.1743,-12.26747 7.387,-2.90799 12.1895,-8.60032 -0.1254,-10.19675 -33.8134,-4.38333 -49.0349,-8.76483 -68.9758,-11.51448 -8.3278,-1.14831 -15.0035,-1.70465 -16.4362,-1.81972 2.0633,-2.44017 6.949,-6.79635 15.401,-6.65142 11.1282,0.19088 27.7017,4.12061 47.1759,2.3531 10.899,-0.98922 28.7019,-5.97457 45.5447,-14.11858 9.8559,-4.7656 13.0653,-10.00804 0.6588,-10.54187 -15.3959,-0.66246 -43.8325,-2.60256 -55.1745,-2.94921 -4.4975,-0.13753 -12.0059,0.0512 -14.5228,0.1255 1.1428,-1.7667 5.9331,-8.06783 15.9971,-8.43977 11.1221,-0.41102 29.8236,-0.063 44.0705,-2.00797 9.1366,-1.24734 16.2462,-2.95284 32.8097,-15.65593 9.0566,-6.94571 13.5779,-11.93452 1.1606,-11.79686 -15.4089,0.17075 -28.1783,0.42368 -39.5222,0.69025 -4.9068,0.11543 -14.9849,0.88339 -16.5617,1.00398 0.796,-1.53823 3.7025,-5.76522 12.1075,-7.12203 11.1119,-1.79375 23.5107,-1.43807 37.1071,-6.11805 8.7195,-3.00131 15.5794,-7.59132 21.7059,-12.70672 9.2728,-7.74251 9.6017,-12.72118 -3.7641,-10.66736 -20.989,3.22526 -13.5996,1.62172 -24.5916,3.73357 -4.771,0.91665 -14.6487,3.0141 -16.4049,3.38846 0.8335,-1.62386 3.7101,-6.03885 11.1039,-8.00052 10.7576,-2.85411 10.2953,-1.56184 23.9015,-6.21218 6.3395,-2.1666 14.9131,-7.868024 20.4827,-13.5852 8.0619,-8.275577 9.6343,-11.676575 0.4078,-9.475132 -11.881,2.835007 -24.9271,8.01175 -35.3506,11.294859 5.5935,-6.02238 8.2804,-9.667908 20.7649,-15.028437 12.559,-5.392487 20.077,-13.206 22.992,-22.840714 0.9839,-3.31146 4.2427,-17.128148 7.6535,-29.241134 3.0507,-10.834395 6.5446,-20.0212959 6.9634,-22.0563489 0.5546,-2.6939168 0.018,-4.26050507 -1.537,-4.235571935609 z"/>
<path style="fill:#fff" d="m 1566.2805,125.62665 -22.2434,67.46875 -71.0849,0.375 57.457,41.9375 -21.6169,67.5625 57.7075,-41.5625 57.7702,41.40625 -21.8048,-67.625 57.3315,-41.96875 -71.2102,-0.25 -22.306,-67.34375 z"/>
<path style="fill:#fff" d="m 1754.9105,300.3167 -19.9251,60.4375 -63.6913,0.34375 51.473,37.5625 -19.361,60.53125 51.7236,-37.25 51.7237,37.09375 -19.5178,-60.5625 51.3477,-37.625 -63.7852,-0.1875 -19.9876,-60.34375 z"/>
<path style="fill:#fff" d="m 1350.9581,347.03455 -22.4001,68.03125 -71.7114,0.375 57.9582,42.28125 -21.8048,68.125 58.2087,-41.90625 58.2402,41.75 -21.9615,-68.1875 57.7701,-42.34375 -71.774,-0.21875 -22.5254,-67.90625 z"/>
<path style="fill:#fff" d="m 1566.7501,685.19823 -23.4339,71.15625 -75.0008,0.375 60.5896,44.25 -22.8073,71.25 60.903,-43.8125 60.903,43.65625 -22.9639,-71.3125 60.4331,-44.28125 -75.0949,-0.25 -23.5279,-71.03125 z"/>
<path style="fill:#d10000" d="m 1565.6852,165.2829 -13.064,39.6875 -41.8552,0.21875 33.8037,24.6875 -12.7195,39.75 33.9603,-24.4375 33.9917,24.34375 -12.8135,-39.78125 33.7097,-24.71875 -41.8864,-0.125 -13.1268,-39.625 z"/>
<path style="fill:#d10000" d="m 1754.3778,335.84795 -11.7169,35.5625 -37.5004,0.1875 30.2948,22.09375 -11.4037,35.625 30.4515,-21.90625 30.4202,21.8125 -11.4662,-35.625 30.2008,-22.125 -37.5319,-0.125 -11.7482,-35.5 z"/>
<path style="fill:#d10000" d="m 1350.3628,387.0033 -13.1581,40.03125 -42.1997,0.21875 34.0856,24.875 -12.8134,40.09375 34.2423,-24.65625 34.2736,24.5625 -12.9387,-40.125 33.9916,-24.90625 -42.2311,-0.125 -13.2521,-39.96875 z"/>
<path style="fill:#d10000" d="m 1566.1235,727.01073 -13.7846,41.875 -44.1421,0.21875 35.6834,26.03125 -13.44,41.9375 35.84,-25.78125 35.8401,25.6875 -13.534,-41.96875 35.5894,-26.0625 -44.2048,-0.15625 -13.8474,-41.78125 z"/>
</svg>
